#!OML:ASF E:\Mandelcareful walks\Project 1\Capture day 1\Session 1\Subject1.ASF
:FULLY-SPECIFIED
:DEGREES
829
root 21.031 14.599 -0.293561 -370.847 207.801 -357.839
lowerback 73.733 -2.00756 8.27522
upperback 4.35217 -2.17397 -4.66397
thorax -16.9559 -3.08997 -7.26789
lowerneck -28.3486 10.0548 4.57355
upperneck 22.7002 17.5134 -18.605
head 15.0708 5.16138 -4.5478
rclavicle -4.65156e-014 6.0033e-014
rhumerus -16.7398 9.96024 -78.0862
rradius 53.6161
rwrist -23.988
rhand -18.6762 -24.1495
rfingers 7.12502
rthumb 7.61768 -53.9923
lclavicle -4.65156e-014 6.0033e-014
lhumerus -11.9135 -15.6877 79.0577
lradius 57.8347
lwrist 26.7613
lhand -29.2602 -15.676
lfingers 7.12502
lthumb -2.60296 14.2878
rfemur -10.3758 -29.5219 7.13783
rtibia 74.5226
rfoot -25.4813 -16.1937
rtoes -15.9248
lfemur -36.707 12.512 -20.3919
ltibia 67.5865
lfoot -21.667 9.116
ltoes 20.7148
830
root 20.9432 14.5985 -0.367641 -371.163 208.743 -357.414
lowerback 73.8915 -1.94517 8.59089
upperback 4.3732 -1.86894 -4.92619
thorax -16.8839 -2.95583 -7.88677
lowerneck -28.3965 9.9429 5.40648
upperneck 23.1055 17.1315 -18.7412
head 15.3071 5.03918 -4.86167
rclavicle -4.85035e-014 -7.55382e-015
rhumerus -17.0302 8.92381 -78.3624
rradius 54.0518
rwrist -24.1417
rhand -18.8082 -24.4976
rfingers 7.12502
rthumb 7.49033 -54.345
lclavicle -4.85035e-014 -7.55382e-015
lhumerus -11.4853 -17.0097 78.9378
lradius 58.2022
lwrist 27.0513
lhand -29.6747 -15.2059
lfingers 7.12502
lthumb -3.00333 14.7527
rfemur -10.6594 -29.8598 6.49138
rtibia 76.3891
rfoot -22.4083 -16.0206
rtoes -16.1821
lfemur -36.3463 11.6788 -20.3433
ltibia 67.8036
lfoot -22.0369 8.84899
ltoes 20.8414
831
root 20.8555 14.6194 -0.435733 -371.618 209.806 -356.822
lowerback 74.0674 -1.77131 8.01192
upperback 4.38269 -1.96791 -4.20796
thorax -16.8288 -3.00173 -6.70447
lowerneck -28.3158 10.2141 4.33256
upperneck 22.6762 17.9348 -18.9495
head 15.1538 5.2647 -4.55039
rclavicle 6.75868e-015 4.21423e-014
rhumerus -16.2727 10.8098 -77.6387
rradius 54.5015
rwrist -24.8144
rhand -18.8913 -24.7042
rfingers 7.12502
rthumb 7.41005 -54.5544
lclavicle 6.75868e-015 4.21423e-014
lhumerus -11.3954 -14.975 79.8683
lradius 58.3094
lwrist 26.2504
lhand -30.077 -14.8898
lfingers 7.12502
lthumb -3.39179 15.063
rfemur -11.3491 -29.5952 6.03969
rtibia 78.5996
rfoot -19.7165 -15.1839
rtoes -11.1173
lfemur -35.8321 10.5743 -20.1735
ltibia 67.8558
lfoot -22.512 8.63782
ltoes 21.5548
832
root 20.768 14.6284 -0.498953 -371.956 211.011 -356.276
lowerback 73.9644 -2.12053 8.57401
upperback 4.57769 -1.94415 -4.40013
thorax -16.5749 -2.98301 -7.18736
lowerneck -28.4701 10.1447 4.61114
upperneck 22.7286 17.7716 -19.0502
head 15.2295 5.20124 -4.67975
rclavicle 4.05521e-014 -2.42517e-014
rhumerus -16.0825 10.1543 -77.7198
rradius 54.8662
rwrist -25.0161
rhand -19.1256 -24.7728
rfingers 7.12502
rthumb 7.18388 -54.6308
lclavicle 4.05521e-014 -2.42517e-014
lhumerus -10.7822 -15.5044 79.9426
lradius 58.4415
lwrist 26.1108
lhand -30.0772 -14.3192
lfingers 7.12502
lthumb -3.39203 15.6336
rfemur -12.2748 -29.8814 5.47052
rtibia 80.8505
rfoot -16.7086 -14.8274
rtoes -9.4083
lfemur -35.5128 9.34988 -20.1441
ltibia 67.8632
lfoot -22.8619 8.48212
ltoes 22.1315
833
root 20.6927 14.6302 -0.564852 -372.049 212.158 -356.182
lowerback 73.943 -2.19731 8.53388
upperback 4.7371 -2.09418 -4.54209
thorax -16.4107 -3.01534 -7.2749
lowerneck -28.8018 10.3028 5.06629
upperneck 22.8964 17.9549 -19.3578
head 15.5046 5.24721 -4.84636
rclavicle 4.29375e-014 -1.55052e-013
rhumerus -15.6387 9.98216 -77.8706
rradius 55.0952
rwrist -25.1778
rhand -19.2837 -24.8575
rfingers 7.12502
rthumb 7.03133 -54.7207
lclavicle 4.29375e-014 -1.55052e-013
lhumerus -10.2192 -15.8757 79.7536
lradius 58.5764
lwrist 26.6789
lhand -29.9159 -14.1777
lfingers 7.12502
lthumb -3.23628 15.7775
rfemur -13.5407 -29.7521 4.92722
rtibia 83.0866
rfoot -13.9235 -15.1756
rtoes -8.97666
lfemur -35.1725 8.28176 -20.4885
ltibia 67.8067
lfoot -23.1311 8.38677
ltoes 22.076
834
root 20.6228 14.6354 -0.632013 -372.051 213.542 -356.296
lowerback 73.941 -2.43898 8.92196
upperback 4.83644 -2.12668 -5.10409
thorax -16.3271 -2.98298 -8.12361
lowerneck -28.7768 10.184 6.05887
upperneck 23.3025 17.4687 -19.3966
head 15.7113 5.12392 -5.17907
rclavicle 1.59028e-014 -5.48646e-014
rhumerus -16.0173 8.48467 -78.4122
rradius 55.5988
rwrist -25.0999
rhand -19.2352 -24.4571
rfingers 7.12502
rthumb 7.07815 -54.3188
lclavicle 1.59028e-014 -5.48646e-014
lhumerus -9.59816 -17.6131 79.2416
lradius 58.638
lwrist 27.6311
lhand -29.6191 -14.4111
lfingers 7.12502
lthumb -2.94961 15.5483
rfemur -14.7161 -29.9487 4.16676
rtibia 85.0878
rfoot -11.3681 -15.883
rtoes -7.30328
lfemur -34.7718 6.88565 -21.0757
ltibia 67.7213
lfoot -23.486 8.42797
ltoes 21.9963
835
root 20.5558 14.6397 -0.698503 -372.121 215.055 -356.176
lowerback 73.8882 -2.71511 8.64838
upperback 4.88788 -2.5432 -4.83872
thorax -16.3092 -3.12468 -7.47202
lowerneck -28.6108 10.4069 5.23844
upperneck 22.8808 18.0889 -19.5209
head 15.5259 5.31797 -4.91124
rclavicle 1.78906e-014 4.37326e-015
rhumerus -15.4243 9.40137 -78.1501
rradius 55.9958
rwrist -25.055
rhand -19.008 -23.9354
rfingers 7.12502
rthumb 7.29742 -53.7895
lclavicle 1.78906e-014 4.37326e-015
lhumerus -9.40881 -16.7229 79.6048
lradius 58.8015
lwrist 27.9073
lhand -29.2439 -14.0696
lfingers 7.12502
lthumb -2.58724 15.8944
rfemur -15.95 -30.4461 3.77719
rtibia 86.731
rfoot -9.09285 -17.0753
rtoes -7.39361
lfemur -34.506 5.4262 -21.4937
ltibia 67.6852
lfoot -23.7885 8.50722
ltoes 21.6214
836
root 20.5069 14.6488 -0.769706 -372.287 216.115 -355.816
lowerback 73.9125 -2.67535 8.43221
upperback 4.88924 -2.58436 -4.65594
thorax -16.3002 -3.1239 -7.14163
lowerneck -28.4829 10.4593 4.53443
upperneck 22.5562 18.3579 -19.4237
head 15.3049 5.40844 -4.6655
rclavicle -6.83819e-014 1.82882e-014
rhumerus -14.9052 9.67714 -77.9951
rradius 56.2056
rwrist -24.7348
rhand -18.5769 -23.1965
rfingers 7.12502
rthumb 7.71352 -53.0358
lclavicle -6.83819e-014 1.82882e-014
lhumerus -9.15927 -16.5044 79.7332
lradius 58.915
lwrist 27.7339
lhand -28.7665 -13.5122
lfingers 7.12502
lthumb -2.12622 16.457
rfemur -17.6009 -29.8952 4.5815
rtibia 87.8821
rfoot -9.61205 -16.0806
rtoes -7.88148
lfemur -34.2875 4.67562 -21.4733
ltibia 67.6908
lfoot -24.0101 8.33302
ltoes 21.3616
837
root 20.4715 14.6566 -0.845742 -372.386 216.918 -355.493
lowerback 73.975 -2.3965 8.29115
upperback 4.82811 -2.34574 -4.74845
thorax -16.3572 -3.00194 -7.33006
lowerneck -28.406 10.3797 4.57622
upperneck 22.6692 18.1675 -19.1371
head 15.2629 5.37881 -4.60298
rclavicle -3.18055e-015 -7.15625e-014
rhumerus -14.8584 9.14552 -78.1929
rradius 56.4128
rwrist -24.5136
rhand -18.2161 -22.5381
rfingers 7.12502
rthumb 8.06175 -52.3644
lclavicle -3.18055e-015 -7.15625e-014
lhumerus -8.91513 -17.2043 79.5224
lradius 58.9695
lwrist 27.3892
lhand -28.3179 -13.3511
lfingers 7.12502
lthumb -1.69296 16.622
rfemur -19.397 -29.182 5.57184
rtibia 88.529
rfoot -10.2387 -15.0667
rtoes -9.57489
lfemur -34.0631 4.49544 -21.4006
ltibia 67.695
lfoot -24.2217 8.10383
ltoes 20.6529
838
root 20.435 14.6573 -0.92262 -372.135 217.817 -355.464
lowerback 73.843 -2.01677 7.60137
upperback 4.5891 -2.29347 -4.52647
thorax -16.6713 -2.93507 -6.81575
lowerneck -27.5617 10.5207 4.48257
upperneck 22.4195 18.3905 -19.3373
head 15.0342 5.5075 -4.61807
rclavicle -1.82882e-014 1.63003e-014
rhumerus -14.9269 9.77129 -78.1616
rradius 56.6189
rwrist -24.5663
rhand -18.0056 -22.3989
rfingers 7.12502
rthumb 8.26496 -52.2172
lclavicle -1.82882e-014 1.63003e-014
lhumerus -9.34833 -16.9889 79.724
lradius 59.1972
lwrist 27.4047
lhand -28.1797 -13.4163
lfingers 7.12502
lthumb -1.55943 16.5578
rfemur -21.4189 -28.2307 6.42923
rtibia 88.8342
rfoot -11.1736 -14.0438
rtoes -8.54667
lfemur -34.0143 4.3637 -21.654
ltibia 67.652
lfoot -24.4983 8.011
ltoes 18.7707
839
root 20.3946 14.6744 -1.00397 -371.668 218.728 -355.667
lowerback 73.4388 -1.47042 6.7217
upperback 4.79155 -2.31357 -4.184
thorax -16.4489 -2.9031 -6.0364
lowerneck -28.1284 10.7195 3.82596
upperneck 22.3832 18.9766 -19.4178
head 15.1743 5.63992 -4.38551
rclavicle 2.94201e-014 -2.21446e-013
rhumerus -15.0334 11.0748 -77.3491
rradius 57.9721
rwrist -25.5418
rhand -17.974 -22.5972
rfingers 7.12502
rthumb 8.29542 -52.4143
lclavicle 2.94201e-014 -2.21446e-013
lhumerus -8.95808 -16.5708 79.7371
lradius 59.3162
lwrist 27.7204
lhand -28.345 -13.6669
lfingers 7.12502
lthumb -1.71908 16.3059
rfemur -23.5753 -27.1629 7.47162
rtibia 88.4463
rfoot -11.317 -13.8768
rtoes -9.7037
lfemur -34.0532 3.97812 -21.938
ltibia 67.5811
lfoot -24.993 7.48825
ltoes 18.5242
